<svg id="Layer_1" data-name="Layer 1" xmlns="http://www.w3.org/2000/svg" width="150" height="150" viewBox="0 0 150 150">
  <defs>
    <style>
      .cls-1 {
        fill: #fc9424;
      }

      .cls-2 {
        fill: #fff;
      }
    </style>
  </defs>
  <title>ghost</title>
  <g>
    <path d="M135.57,92.73c0,7.33.19,14.67,0,22-.27,8-1.87,15.59-7.55,21.7A23,23,0,0,1,115.85,143a4,4,0,0,1-4.67-2.1c-2.12-3.67-4-7.46-6-11.2-1.87-3.53-3.53-7.18-5.66-10.54-1.86-2.94-3.6-3-5.59-.1-2.88,4.17-5.34,8.63-8.07,12.91a74.78,74.78,0,0,1-6,8.61c-3.72,4.32-7.85,4.25-11.32-.27a127.27,127.27,0,0,1-7-10.91C59.67,126.26,58,123,56,120c-2.74-4.07-4.64-4-7,.32-2.81,5.1-5.25,10.4-7.84,15.62-.07.15-.13.31-.2.46-3.76,7.55-6.19,8.32-13.74,4.45-7.86-4-11.28-11-12.68-19.24a52.63,52.63,0,0,1-.83-8.94c0-14.66-.55-29.37.49-44,1.69-23.81,12.23-43,33.47-55C70.3.92,98.37,5.9,116.17,25c13,14,19.15,30.57,19.39,49.5C135.63,80.57,135.57,86.65,135.57,92.73ZM16.18,92.5l.48,0c0,5.92-.17,11.84.06,17.75a86.08,86.08,0,0,0,1.36,13.13c1.38,7,5.18,12.38,12,15.26,4.57,1.93,5.07,1.76,7.39-2.54.59-1.1,1.08-2.25,1.65-3.36,2.72-5.24,5.11-10.69,8.3-15.63,3-4.66,6.93-4.55,10.28,0,2.32,3.12,4.11,6.64,6.19,10,2.43,3.87,4.71,7.86,7.43,11.52,2,2.65,3.84,2.67,6,.17a75.21,75.21,0,0,0,5.85-8.35c2.94-4.53,5.52-9.33,8.74-13.65,3.08-4.14,6.84-4,9.82.19a93.76,93.76,0,0,1,6,10.66c1.74,3.32,3.31,6.72,5,10.07,1,2,2.35,2.58,4.65,1.76,6.11-2.18,10.71-6,12.63-12.21A49.32,49.32,0,0,0,132.33,114c.3-13.49.35-27,0-40.49-.43-19.06-6.83-35.82-21.14-48.81C95.37,10.33,76.87,5.58,56.56,13.09,34.32,21.32,22.31,38.74,18.19,61.4,16.34,71.55,16.78,82.12,16.18,92.5Z"/>
    <path class="cls-1" d="M16.18,92.5c.6-10.38.17-21,2-31.1,4.12-22.66,16.13-40.08,38.37-48.31,20.31-7.51,38.81-2.76,54.66,11.62,14.31,13,20.71,29.75,21.14,48.81.3,13.49.26,27,0,40.49a49.32,49.32,0,0,1-2.41,13.19c-1.91,6.22-6.52,10-12.63,12.21-2.3.82-3.65.24-4.65-1.76-1.67-3.35-3.24-6.76-5-10.07a93.76,93.76,0,0,0-6-10.66c-3-4.23-6.74-4.33-9.82-.19-3.21,4.33-5.79,9.12-8.74,13.65a75.21,75.21,0,0,1-5.85,8.35c-2.16,2.51-4,2.49-6-.17-2.73-3.66-5-7.65-7.43-11.52-2.08-3.31-3.87-6.83-6.19-10-3.35-4.5-7.27-4.61-10.28,0-3.19,4.94-5.57,10.39-8.3,15.63-.58,1.11-1.06,2.26-1.65,3.36-2.32,4.3-2.81,4.47-7.39,2.54-6.8-2.87-10.6-8.25-12-15.26a83.63,83.63,0,0,1-1.36-13.13c-.22-5.91-.06-11.83-.06-17.75ZM125.36,49.78a10.19,10.19,0,1,0-10.22,10.15A10.28,10.28,0,0,0,125.36,49.78Zm-45.47-.2a10.25,10.25,0,0,0,10,10.35c5.42.1,9.76-4.37,9.82-10.11S95.54,39.54,90.1,39.5A10.16,10.16,0,0,0,79.89,49.58Z"/>
    <path d="M125.36,49.78a10.19,10.19,0,1,1-10-10.28A10.31,10.31,0,0,1,125.36,49.78Zm-2.25,2.86c1.32-4.32,0-8-3.19-10.15a8.62,8.62,0,0,0-12.61,10.73,8.19,8.19,0,0,0,8.82,4.88c-2.93-1.58-4.55-3.72-3.62-7a4.8,4.8,0,0,1,4.55-3.68C120.33,47.22,122.05,49.19,123.11,52.64Z"/>
    <path d="M79.89,49.58A10.17,10.17,0,0,1,90.11,39.5c5.44,0,9.65,4.57,9.59,10.32S95.29,60,89.88,59.93A10.26,10.26,0,0,1,79.89,49.58Zm17.94,2c.61-4.78-1.08-8.27-4.37-9.82A8.61,8.61,0,0,0,82.62,54.08a7.55,7.55,0,0,0,8.14,3.86c-2.77-1.4-4.29-3.42-3.61-6.48a4.92,4.92,0,0,1,4.06-3.93C94.3,46.9,96.2,48.61,97.83,51.62Z"/>
    <path class="cls-2" d="M123.11,52.64c-1.07-3.45-2.79-5.42-6.06-5.19a4.81,4.81,0,0,0-4.55,3.68c-.93,3.25.69,5.39,3.62,7a8.18,8.18,0,0,1-8.82-4.88,8.62,8.62,0,0,1,12.61-10.73C123.14,44.64,124.43,48.32,123.11,52.64Z"/>
    <path class="cls-2" d="M97.83,51.62c-1.63-3-3.53-4.73-6.61-4.09a4.92,4.92,0,0,0-4.06,3.93c-.68,3.06.85,5.08,3.61,6.48a7.55,7.55,0,0,1-8.14-3.86A8.53,8.53,0,0,1,83.69,43.9a8.44,8.44,0,0,1,9.78-2.1C96.75,43.36,98.44,46.84,97.83,51.62Z"/>
  </g>
</svg>
